<?xml version="1.0" standalone="no"?>
<!DOCTYPE svg PUBLIC "-//W3C//DTD SVG 20010904//EN"
 "http://www.w3.org/TR/2001/REC-SVG-20010904/DTD/svg10.dtd">
<svg version="1.0" xmlns="http://www.w3.org/2000/svg"
 width="260.000000pt" height="260.000000pt" viewBox="0 0 260.000000 260.000000"
 preserveAspectRatio="xMidYMid meet">
<metadata>
Created by potrace 1.14, written by Peter Selinger 2001-2017
</metadata>
<g transform="translate(0.000000,260.000000) scale(0.100000,-0.100000)"
fill="#000000" stroke="none">
<path d="M0 2458 c0 -79 4 -138 8 -132 16 24 51 22 77 -4 16 -16 38 -26 57
-26 26 -1 35 -8 54 -44 16 -30 21 -52 17 -76 -5 -31 -2 -36 28 -52 19 -9 37
-21 40 -27 4 -5 30 -18 58 -27 l51 -18 37 25 c32 21 49 25 120 27 83 1 83 1
112 -33 23 -27 36 -34 60 -32 17 1 41 2 54 2 30 1 101 21 108 32 11 15 54 -4
74 -33 11 -17 29 -30 40 -30 11 0 32 -7 48 -14 34 -18 35 -7 1 25 -15 14 -23
31 -20 42 3 14 1 17 -12 12 -13 -5 -14 -3 -6 5 8 8 18 9 30 2 11 -6 30 -15 44
-20 18 -8 20 -11 8 -11 -22 -1 -24 -27 -2 -35 9 -3 30 -6 47 -6 29 1 30 2 14
14 -24 18 -6 31 45 32 39 0 63 13 40 21 -6 3 -10 8 -7 13 3 5 -22 6 -56 4 -60
-5 -63 -4 -93 28 -18 19 -39 44 -48 57 -16 23 -76 43 -125 42 -12 0 -45 -14
-73 -31 -57 -34 -75 -38 -66 -14 4 9 1 23 -5 30 -9 11 -6 16 12 23 13 5 27 7
31 4 4 -2 5 3 1 12 -3 9 -7 26 -8 38 -4 41 -5 42 -13 32 -4 -6 -19 -18 -34
-28 -16 -10 -28 -25 -28 -35 0 -23 -19 -42 -42 -42 -10 0 -18 -4 -18 -10 0 -5
-8 -10 -18 -10 -10 0 -23 -5 -30 -12 -16 -16 -66 34 -58 60 3 10 0 26 -7 36
-11 15 -17 17 -35 7 -12 -6 -42 -12 -67 -13 -25 0 -48 -4 -51 -9 -3 -5 -16 -9
-28 -9 -18 0 -23 6 -23 25 0 14 5 25 12 25 7 0 18 14 24 31 10 30 9 31 -28 46
-47 18 -45 42 5 66 34 17 35 17 44 -8 10 -25 24 -32 34 -16 3 5 -1 25 -9 45
-19 44 -19 46 0 46 18 0 64 49 65 68 0 22 -27 13 -46 -15 -32 -51 -43 -57 -70
-44 -14 6 -36 11 -49 11 -15 0 -25 6 -25 14 0 8 -13 16 -30 18 -16 3 -30 1
-30 -3 0 -4 -7 -15 -16 -23 -8 -9 -11 -16 -5 -16 6 0 11 -5 11 -11 0 -6 -7 -8
-16 -5 -11 4 -15 2 -11 -8 6 -16 -16 -40 -27 -29 -4 4 -4 -12 0 -35 7 -42 -7
-59 -20 -25 -5 12 -9 14 -18 5 -14 -14 -48 -16 -48 -3 0 9 -60 37 -71 34 -3
-1 -6 4 -6 12 0 7 11 18 24 24 20 9 22 14 13 32 -10 18 -7 25 27 54 l38 34
-57 1 -58 0 0 -142z m30 102 c0 -5 -4 -10 -10 -10 -5 0 -10 5 -10 10 0 6 5 10
10 10 6 0 10 -4 10 -10z"/>
<path d="M565 2590 c-3 -5 3 -10 14 -10 11 0 23 5 26 10 3 6 -3 10 -14 10 -11
0 -23 -4 -26 -10z"/>
<path d="M450 2486 c0 -8 5 -18 10 -21 6 -3 10 -17 10 -31 0 -14 7 -27 15 -30
8 -4 13 -10 10 -14 -8 -13 35 -39 52 -33 8 3 25 0 39 -7 19 -10 21 -16 12 -27
-8 -10 -8 -17 0 -25 18 -18 59 16 66 56 5 25 12 36 25 36 20 0 46 46 31 55 -6
4 -10 1 -10 -4 0 -6 -18 -22 -41 -36 -36 -24 -43 -25 -70 -13 -34 15 -38 28
-8 28 14 0 19 5 17 18 -2 12 -15 18 -43 20 -22 2 -47 9 -55 17 -25 22 -60 28
-60 11z"/>
<path d="M1082 2240 c-33 -45 -29 -57 24 -63 50 -5 97 9 102 32 4 20 -18 41
-44 41 -13 0 -24 5 -24 10 0 21 -37 9 -58 -20z"/>
<path d="M1083 1954 c-20 -5 -23 -12 -23 -58 0 -29 -3 -55 -6 -59 -3 -3 -17 6
-30 21 -13 15 -24 22 -24 16 0 -7 7 -15 16 -18 10 -4 13 -13 9 -26 -4 -14 -2
-20 9 -20 27 0 30 -66 19 -485 -9 -340 -13 -417 -27 -449 -9 -22 -51 -76 -94
-120 -87 -92 -131 -170 -162 -292 -17 -64 -20 -110 -20 -271 l0 -193 486 0
486 0 -5 223 c-3 132 -9 238 -17 262 -31 101 -84 189 -163 272 -93 96 -104
128 -103 281 1 50 -2 92 -6 92 -9 0 -5 82 6 99 6 10 6 12 -2 7 -9 -5 -12 15
-12 73 0 45 -4 81 -9 81 -6 0 -8 10 -5 23 2 12 4 74 5 137 0 65 5 117 10 121
6 3 11 29 12 58 0 29 4 54 9 57 5 3 6 10 3 15 -4 5 1 9 9 9 9 0 16 5 16 10 0
6 -9 10 -21 10 -19 0 -20 5 -17 55 3 42 1 56 -11 61 -20 8 -307 14 -338 8z
m28 -286 c0 -10 2 -10 6 0 2 6 20 12 39 12 20 0 34 -5 35 -12 0 -10 2 -10 6 0
3 7 25 12 59 12 l54 0 0 -35 c0 -19 5 -35 10 -35 6 0 10 16 10 35 0 19 5 35
10 35 6 0 10 -17 10 -37 0 -28 3 -34 10 -23 5 8 10 25 10 38 0 12 4 22 10 22
6 0 10 -55 9 -142 l0 -143 -127 3 c-136 3 -152 5 -152 22 0 6 4 9 9 6 5 -3 9
5 9 18 0 16 -8 26 -20 29 -16 4 -17 9 -10 24 7 12 7 25 1 36 -8 14 -6 17 11
17 11 0 20 6 20 14 0 8 6 17 13 20 6 3 0 4 -16 2 -34 -4 -40 4 -23 35 14 28 2
49 -24 41 -13 -3 -13 -2 0 7 20 14 30 14 31 -1z m74 -733 c0 -25 -4 -31 -27
-33 -31 -4 -37 13 -17 49 16 30 44 20 44 -16z m-111 -336 c38 -30 49 -64 36
-105 -25 -74 -110 -98 -170 -47 -28 23 -31 31 -26 61 3 19 17 52 31 73 22 34
30 39 64 39 24 0 48 -8 65 -21z"/>
<path d="M1228 1645 c-3 -14 -1 -25 3 -25 5 0 9 11 9 25 0 14 -2 25 -4 25 -2
0 -6 -11 -8 -25z"/>
<path d="M1190 1628 c0 -12 3 -18 7 -14 11 10 12 36 2 36 -5 0 -9 -10 -9 -22z"/>
<path d="M1185 1560 c3 -5 8 -10 11 -10 2 0 4 5 4 10 0 6 -5 10 -11 10 -5 0
-7 -4 -4 -10z"/>
<path d="M1310 1540 c0 -5 5 -10 10 -10 6 0 10 5 10 10 0 6 -4 10 -10 10 -5 0
-10 -4 -10 -10z"/>
<path d="M1225 1530 c-3 -5 -1 -10 4 -10 6 0 11 5 11 10 0 6 -2 10 -4 10 -3 0
-8 -4 -11 -10z"/>
<path d="M1455 1860 c-3 -5 -1 -10 4 -10 6 0 11 5 11 10 0 6 -2 10 -4 10 -3 0
-8 -4 -11 -10z"/>
</g>
</svg>
